# xmcd CD database file
#
# Track frame offsets:
#	150
#	14030
#	26793
#	40710
#	55135
#	68227
#	80306
#	92892
#	106583
#	118821
#	133049
#	145840
#	158961
#	173747
#	185720
#	198380
#	210657
#	219714
#	232959
#	245930
#
# Disc length: 3455 seconds
#
# Revision: 0
# Processed by: cddbd v1.5.2PL0 Copyright (c) Steve Scherf et al.
# Submitted via: CDex 1.51
#
DISCID=260d7d14
DTITLE=Various Artist - Blues, L'intégrale CD8
DYEAR=1988
DGENRE=Blues
TTITLE0=Big Bill Broonzy - Mr Conductor Man
TTITLE1=Tommy McLennan - Bottle It Up And Co
TTITLE2=Barbecue Bob - Mississippi Heavy Water Blues
TTITLE3=Buddy Moss - Undertaker Blues
TTITLE4=Lonnie Johnson - Away Down In The Alley
TTITLE5=Blind Lemon Jefferson - That Crawling Baby Blue
TTITLE6=Big Joe Williams - Stack Of Dollars
TTITLE7=Big Joe McCoy - I Love You Baby
TTITLE8=Steven Gallon Jug Band - Wipe 'Em Off
TTITLE9=Leroy Carr - Midnight Hour Blues
TTITLE10=Faber Smith - East Saint Louis Blues
TTITLE11=James Bat Robinson - Humming Blues
TTITLE12=Champion Jack Dupree - Contry Jail Special
TTITLE13=Curtis Jones - Too Many Blues
TTITLE14=Laedbelly - Grasshoppers In My Pillow
TTITLE15=Blinf Boy Fuller - Good Feeling Blues
TTITLE16=Sonny Terry - Hootin' The Blues
TTITLE17=The Florida Kid - Hitler Blues
TTITLE18=Roosevelt Sikes - Training Camp Blues
TTITLE19=Big Maceo - Conty Jail Blues
EXTD=YEAR: 1988
EXTT0=
EXTT1=
EXTT2=
EXTT3=
EXTT4=
EXTT5=
EXTT6=
EXTT7=
EXTT8=
EXTT9=
EXTT10=
EXTT11=
EXTT12=
EXTT13=
EXTT14=
EXTT15=
EXTT16=
EXTT17=
EXTT18=
EXTT19=
PLAYORDER=
